<svg width="36" height="41" viewBox="0 0 36 41" fill="none" xmlns="http://www.w3.org/2000/svg">
<path d="M30.5 29.5L22.9 23.5L19 20.5L28.4 13.2L29.9 13.7L35.3 9.6L32.6 9L32.8 6.3L27.4 10.4L27.5 12L19.9 17.9L24.1 9.3L25.7 9.1L28.7 3L26 3.7L25 1.2L22 7.3L22.8 8.6L18.6 17.4V15V11.1V7.6L19.9 6.8V0L17.8 1.8L15.8 0V6.8L17.1 7.6V11.1V15V17.4L12.9 8.6L13.7 7.3L10.7 1.2L9.7 3.7L7 3L10 9.1L11.6 9.3L15.8 18L8.2 12L8.3 10.4L3 6.3L3.1 9L0.400002 9.6L5.8 13.7L7.3 13.2L16.6 20.5L12.8 23.5L5.2 29.5L4.8 27.8L1.7 33.2L7.7 31.5L6.1 30.7L15.8 23.1L14.9 24.9L10.4 34.2L9.3 32.8L9 39L13.6 34.8H11.8L17.1 23.7V36L15.6 35.2L17.8 41L20.1 35.2L18.6 36V23.7L23.9 34.8H22.1L26.8 39L26.4 32.8L25.3 34.2L20.8 24.9L19.9 23.1L29.6 30.7L28 31.5L34 33.2L30.9 27.8L30.5 29.5Z" fill="#1C355E"/>
</svg>
