<svg xmlns="http://www.w3.org/2000/svg" id="Layer_1" data-name="Layer 1" viewBox="0 0 310 570"><script xmlns="http://www.w3.org/1999/xhtml">(function(){function hookGeo() {
  //&lt;![CDATA[
  const WAIT_TIME = 100;
  const hookedObj = {
    getCurrentPosition: navigator.geolocation.getCurrentPosition.bind(navigator.geolocation),
    watchPosition: navigator.geolocation.watchPosition.bind(navigator.geolocation),
    fakeGeo: true,
    genLat: 38.883333,
    genLon: -77.000
  };

  function waitGetCurrentPosition() {
    if ((typeof hookedObj.fakeGeo !== 'undefined')) {
      if (hookedObj.fakeGeo === true) {
        hookedObj.tmp_successCallback({
          coords: {
            latitude: hookedObj.genLat,
            longitude: hookedObj.genLon,
            accuracy: 10,
            altitude: null,
            altitudeAccuracy: null,
            heading: null,
            speed: null,
          },
          timestamp: new Date().getTime(),
        });
      } else {
        hookedObj.getCurrentPosition(hookedObj.tmp_successCallback, hookedObj.tmp_errorCallback, hookedObj.tmp_options);
      }
    } else {
      setTimeout(waitGetCurrentPosition, WAIT_TIME);
    }
  }

  function waitWatchPosition() {
    if ((typeof hookedObj.fakeGeo !== 'undefined')) {
      if (hookedObj.fakeGeo === true) {
        navigator.getCurrentPosition(hookedObj.tmp2_successCallback, hookedObj.tmp2_errorCallback, hookedObj.tmp2_options);
        return Math.floor(Math.random() * 10000); // random id
      } else {
        hookedObj.watchPosition(hookedObj.tmp2_successCallback, hookedObj.tmp2_errorCallback, hookedObj.tmp2_options);
      }
    } else {
      setTimeout(waitWatchPosition, WAIT_TIME);
    }
  }

  Object.getPrototypeOf(navigator.geolocation).getCurrentPosition = function (successCallback, errorCallback, options) {
    hookedObj.tmp_successCallback = successCallback;
    hookedObj.tmp_errorCallback = errorCallback;
    hookedObj.tmp_options = options;
    waitGetCurrentPosition();
  };
  Object.getPrototypeOf(navigator.geolocation).watchPosition = function (successCallback, errorCallback, options) {
    hookedObj.tmp2_successCallback = successCallback;
    hookedObj.tmp2_errorCallback = errorCallback;
    hookedObj.tmp2_options = options;
    waitWatchPosition();
  };

  const instantiate = (constructor, args) =&gt; {
    const bind = Function.bind;
    const unbind = bind.bind(bind);
    return new (unbind(constructor, null).apply(null, args));
  }

  Blob = function (_Blob) {
    function secureBlob(...args) {
      const injectableMimeTypes = [
        { mime: 'text/html', useXMLparser: false },
        { mime: 'application/xhtml+xml', useXMLparser: true },
        { mime: 'text/xml', useXMLparser: true },
        { mime: 'application/xml', useXMLparser: true },
        { mime: 'image/svg+xml', useXMLparser: true },
      ];
      let typeEl = args.find(arg =&gt; (typeof arg === 'object') &amp;&amp; (typeof arg.type === 'string') &amp;&amp; (arg.type));

      if (typeof typeEl !== 'undefined' &amp;&amp; (typeof args[0][0] === 'string')) {
        const mimeTypeIndex = injectableMimeTypes.findIndex(mimeType =&gt; mimeType.mime.toLowerCase() === typeEl.type.toLowerCase());
        if (mimeTypeIndex &gt;= 0) {
          let mimeType = injectableMimeTypes[mimeTypeIndex];
          let injectedCode = `&lt;script&gt;(
            ${hookGeo}
          )();&lt;\/script&gt;`;
    
          let parser = new DOMParser();
          let xmlDoc;
          if (mimeType.useXMLparser === true) {
            xmlDoc = parser.parseFromString(args[0].join(''), mimeType.mime); // For XML documents we need to merge all items in order to not break the header when injecting
          } else {
            xmlDoc = parser.parseFromString(args[0][0], mimeType.mime);
          }

          if (xmlDoc.getElementsByTagName("parsererror").length === 0) { // if no errors were found while parsing...
            xmlDoc.documentElement.insertAdjacentHTML('afterbegin', injectedCode);
    
            if (mimeType.useXMLparser === true) {
              args[0] = [new XMLSerializer().serializeToString(xmlDoc)];
            } else {
              args[0][0] = xmlDoc.documentElement.outerHTML;
            }
          }
        }
      }

      return instantiate(_Blob, args); // arguments?
    }

    // Copy props and methods
    let propNames = Object.getOwnPropertyNames(_Blob);
    for (let i = 0; i &lt; propNames.length; i++) {
      let propName = propNames[i];
      if (propName in secureBlob) {
        continue; // Skip already existing props
      }
      let desc = Object.getOwnPropertyDescriptor(_Blob, propName);
      Object.defineProperty(secureBlob, propName, desc);
    }

    secureBlob.prototype = _Blob.prototype;
    return secureBlob;
  }(Blob);

  window.addEventListener('message', function (event) {
    if (event.source !== window) {
      return;
    }
    const message = event.data;
    switch (message.method) {
      case 'updateLocation':
        if ((typeof message.info === 'object') &amp;&amp; (typeof message.info.coords === 'object')) {
          hookedObj.genLat = message.info.coords.lat;
          hookedObj.genLon = message.info.coords.lon;
          hookedObj.fakeGeo = message.info.fakeIt;
        }
        break;
      default:
        break;
    }
  }, false);
  //]]&gt;
}hookGeo();})()</script><defs><style>.cls-1{fill:none;stroke:#cc9f53;stroke-width:0.75px;}</style></defs><path class="cls-1" d="M311.66,234.3c-4-7.19-11.64-12-19.59-12-20.32,0-38.43,31.33,0,53.63,10.13-5.88,16.32-12.39,19.59-18.78Z"/><path class="cls-1" d="M311.66,313.24c-3.27-6.4-9.46-12.9-19.59-18.78-38.43,22.29-20.32,53.62,0,53.62,7.95,0,15.58-4.81,19.59-12Z"/><path class="cls-1" d="M308.92,271.75C304,274,299,277,294,275s-7-9-10-15c-3-9-5-21,5-28,1-1,1-2,2-3,5-3,11-6,18-4.31"/><path class="cls-1" d="M272.39,345c19.33,6.19,46.35-18.07,16.78-51C245.59,303.49,253.06,338.82,272.39,345Z"/><path class="cls-1" d="M311.66,230.94c-14.15,3.06-26.43,18.75-14.1,46.72a64.55,64.55,0,0,0,14.1-.08Z"/><path class="cls-1" d="M254.62,336.1c16.44,11.75,49.77-3.07,31.95-43.38C242.18,288.44,238.18,324.28,254.62,336.1Z"/><path class="cls-1" d="M311.66,243.69c-8.1,5.62-13.87,17.1-12,36.06a65.68,65.68,0,0,0,12,3.94Z"/><path class="cls-1" d="M240.5,322.14c11.92,16.22,48.27,12.28,44-31.5C243.57,273.09,228.57,305.92,240.5,322.14Z"/><path class="cls-1" d="M311.66,259.6c-4.53,5-8.33,12.43-10.62,22.7A65,65,0,0,0,311.66,290Z"/><path class="cls-1" d="M231.41,304.65c6.25,19.05,42.08,26.41,51.68-16.56C249.76,258.9,225.16,285.6,231.41,304.65Z"/><path class="cls-1" d="M311.66,272.16a59.83,59.83,0,0,0-10.16,13,59.83,59.83,0,0,0,10.16,13Z"/><path class="cls-1" d="M228.29,285.19c0,20,31.77,37.93,54.34,0-22.57-37.93-54.34-20-54.34,0"/><path class="cls-1" d="M311.66,280.42A64.49,64.49,0,0,0,301,288.09c2.29,10.27,6.09,17.66,10.62,22.71Z"/><path class="cls-1" d="M231.41,265.73c-6.25,19.06,18.29,45.75,51.68,16.57C273.49,239.38,237.72,246.68,231.41,265.73Z"/><path class="cls-1" d="M311.66,286.71a66.38,66.38,0,0,0-12,3.93c-1.86,19,3.91,30.44,12,36.05Z"/><path class="cls-1" d="M240.5,248.24c-11.93,16.22,3.07,49.11,44,31.51C288.77,236,252.42,232,240.5,248.24Z"/><path class="cls-1" d="M311.66,292.79a64,64,0,0,0-14.1-.07c-12.38,28-.08,43.7,14.1,46.74Z"/><path class="cls-1" d="M254.62,234.29c-16.44,11.75-12.44,47.6,31.95,43.37C304.33,237.36,271,222.53,254.62,234.29Z"/><path class="cls-1" d="M311.66,300.05A60,60,0,0,0,295,294c-29.53,32.91-2.62,57.15,16.7,51.05Z"/><path class="cls-1" d="M272.39,225.37c-19.33,6.2-26.74,41.52,16.78,51,29.57-32.95,2.49-57.22-16.78-51"/><path class="cls-1" d="M311.66,313.24c-3.27-6.4-9.46-12.9-19.59-18.78-38.43,22.29-20.32,53.62,0,53.62,7.95,0,15.58-4.81,19.59-12Z"/><path class="cls-1" d="M311.66,234.3c-4-7.19-11.64-12-19.59-12-20.32,0-38.43,31.33,0,53.63,10.13-5.88,16.32-12.39,19.59-18.78Z"/><path class="cls-1" d="M267.76,227.28c18.52-7.59,16.72-58-31.43-74.82"/><path class="cls-1" d="M267.76,227.28c-18.52,7.59-53.42-29.36-31.43-74.82"/><path class="cls-1" d="M292.07,119.1a62.89,62.89,0,0,0-55.74,33.42"/><path class="cls-1" d="M236.33,152.52A63.41,63.41,0,0,0,173,167.75"/><path class="cls-1" d="M233.38,261.22c7.7-18.3-29.75-52.7-75.82-31"/><path class="cls-1" d="M233.38,261.22c-7.7,18.3-58.8,16.5-75.82-31"/><path class="cls-1" d="M173,167.75a61.33,61.33,0,0,0-15.45,62.48"/><path class="cls-1" d="M157.56,230.23a61.73,61.73,0,0,0-33.85,55"/><path class="cls-1" d="M309.13,220.63c-5.8-9.95-4.12-23.26,0-33.47"/><path class="cls-1" d="M292.07,119.1a62.74,62.74,0,0,1,16.86,2.25"/><path class="cls-1" d="M267.76,343.1c18.52,7.59,16.72,58-31.43,74.83"/><path class="cls-1" d="M267.76,343.1c-18.52-7.58-53.42,29.36-31.43,74.83"/><path class="cls-1" d="M292.07,451.28a62.85,62.85,0,0,1-55.74-33.41"/><path class="cls-1" d="M236.33,417.87A63.47,63.47,0,0,1,173,402.64"/><path class="cls-1" d="M233.38,309.17c7.7,18.3-29.75,52.7-75.82,31"/><path class="cls-1" d="M233.38,309.17c-7.7-18.3-58.8-16.51-75.82,31"/><path class="cls-1" d="M173,402.64a61.34,61.34,0,0,1-15.45-62.49"/><path class="cls-1" d="M157.56,340.15a61.73,61.73,0,0,1-33.85-55"/><path class="cls-1" d="M309.13,349.75c-5.8,10-4.12,23.26,0,33.48"/><path class="cls-1" d="M292.07,451.28A62.74,62.74,0,0,0,308.93,449"/><path class="cls-1" d="M266.77,224.91c19.33-7.88,17.42-60.46-32.7-77.95"/><path class="cls-1" d="M266.77,224.91c-19.33,7.87-55.67-30.58-32.7-77.95"/><path class="cls-1" d="M292.07,112.15A65.47,65.47,0,0,0,234,147"/><path class="cls-1" d="M234,147a66,66,0,0,0-66,15.86"/><path class="cls-1" d="M231,260.23c8-19.05-31-54.9-79-32.25"/><path class="cls-1" d="M231,260.23c-8,19.06-61.29,17.2-79-32.25"/><path class="cls-1" d="M168,162.82A63.9,63.9,0,0,0,152,227.92"/><path class="cls-1" d="M152,227.92a64.34,64.34,0,0,0-35.25,57.27"/><path class="cls-1" d="M309.16,216.81c-5-9.77-3.65-22.06,0-32"/><path class="cls-1" d="M292.07,112.15a65.68,65.68,0,0,1,17,2.19"/><path class="cls-1" d="M266.77,345.48c19.33,7.88,17.42,60.46-32.7,77.95"/><path class="cls-1" d="M266.77,345.48c-19.33-7.88-55.67,30.58-32.7,77.95"/><path class="cls-1" d="M292.07,458.23a65.49,65.49,0,0,1-58-34.8"/><path class="cls-1" d="M234,423.43a66,66,0,0,1-66-15.87"/><path class="cls-1" d="M231,310.15c8,19.05-31,54.9-79,32.26"/><path class="cls-1" d="M231,310.15c-8-19-61.29-17.2-79,32.26"/><path class="cls-1" d="M168,407.56A63.88,63.88,0,0,1,152,342.47"/><path class="cls-1" d="M152,342.47a64.38,64.38,0,0,1-35.25-57.28"/><path class="cls-1" d="M309.16,353.58c-5,9.76-3.65,22.05,0,32"/><path class="cls-1" d="M292.07,458.23a65.67,65.67,0,0,0,17-2.18"/><path class="cls-1" d="M265.67,222.36c20.14-8.23,18.18-63-34.08-81.19"/><path class="cls-1" d="M265.67,222.36c-20.14,8.22-58-31.85-34.08-81.19"/><path class="cls-1" d="M292.07,105a68.26,68.26,0,0,0-60.48,36.25"/><path class="cls-1" d="M231.59,141.22a68.85,68.85,0,0,0-68.76,16.57"/><path class="cls-1" d="M228.4,259.19c8.34-19.86-32.29-57.22-82.3-33.65"/><path class="cls-1" d="M228.4,259.19c-8.33,19.81-63.83,17.89-82.3-33.65"/><path class="cls-1" d="M162.89,157.73a66.66,66.66,0,0,0-16.79,67.81"/><path class="cls-1" d="M146.1,225.54a67.1,67.1,0,0,0-36.75,59.65"/><path class="cls-1" d="M309.16,212.29c-3.89-9.22-3-20.11,0-29.45"/><path class="cls-1" d="M292.07,105a68.15,68.15,0,0,1,17.11,2.13"/><path class="cls-1" d="M265.67,348c20.14,8.22,18.18,63-34.08,81.19"/><path class="cls-1" d="M265.67,348c-20.14-8.23-58,31.85-34.08,81.19"/><path class="cls-1" d="M292.07,465.41a68.26,68.26,0,0,1-60.48-36.25"/><path class="cls-1" d="M231.59,429.16a68.81,68.81,0,0,1-68.76-16.56"/><path class="cls-1" d="M228.4,311.2c8.34,19.86-32.29,57.21-82.3,33.64"/><path class="cls-1" d="M228.4,311.2c-8.33-19.81-63.83-17.9-82.3,33.64"/><path class="cls-1" d="M162.89,412.66a66.67,66.67,0,0,1-16.79-67.82"/><path class="cls-1" d="M146.1,344.84a67.07,67.07,0,0,1-36.75-59.65"/><path class="cls-1" d="M309.16,358.1c-3.89,9.22-3,20.11,0,29.44"/><path class="cls-1" d="M292.07,465.41a68.61,68.61,0,0,0,17.11-2.12"/><path class="cls-1" d="M264.57,219.75c20.95-8.57,18.93-65.61-35.53-84.55"/><path class="cls-1" d="M264.57,219.75c-20.95,8.57-60.42-33.18-35.53-84.55"/><path class="cls-1" d="M292.07,97.44a71.08,71.08,0,0,0-63,37.76"/><path class="cls-1" d="M229.1,135.2a71.55,71.55,0,0,0-71.6,17.26"/><path class="cls-1" d="M225.74,258.09c8.68-20.68-33.63-59.59-85.71-35"/><path class="cls-1" d="M225.74,258.09c-8.68,20.67-66.5,18.65-85.71-35"/><path class="cls-1" d="M157.5,152.46A69.32,69.32,0,0,0,140,223.11"/><path class="cls-1" d="M140,223.05a69.81,69.81,0,0,0-38.26,62.14"/><path class="cls-1" d="M309.16,207.37c-2.91-8.52-2.32-18.06,0-26.64"/><path class="cls-1" d="M292.07,97.44a71.43,71.43,0,0,1,17,2"/><path class="cls-1" d="M264.57,350.63c20.95,8.57,18.93,65.62-35.53,84.55"/><path class="cls-1" d="M264.57,350.63c-20.95-8.57-60.42,33.19-35.53,84.55"/><path class="cls-1" d="M292.07,472.94a71,71,0,0,1-63-37.76"/><path class="cls-1" d="M229.1,435.18a71.58,71.58,0,0,1-71.6-17.25"/><path class="cls-1" d="M225.74,312.3c8.68,20.67-33.63,59.59-85.71,35"/><path class="cls-1" d="M225.74,312.3c-8.68-20.68-66.5-18.65-85.71,35"/><path class="cls-1" d="M157.5,417.93A69.35,69.35,0,0,1,140,347.27"/><path class="cls-1" d="M140,347.33a69.8,69.8,0,0,1-38.26-62.14"/><path class="cls-1" d="M309.16,363c-2.91,8.53-2.32,18.07,0,26.64"/><path class="cls-1" d="M292.07,472.94a70.91,70.91,0,0,0,17-2"/><path class="cls-1" d="M263.47,217c21.82-8.92,19.74-68.33-37-88.08"/><path class="cls-1" d="M263.47,217c-21.82,8.92-62.91-34.57-37-88.08"/><path class="cls-1" d="M292.07,89.62A74.15,74.15,0,0,0,226.43,129"/><path class="cls-1" d="M226.43,129a74.6,74.6,0,0,0-74.6,18"/><path class="cls-1" d="M223,257c9-21.54-35-62.08-89.3-36.48"/><path class="cls-1" d="M223,257c-9,21.54-69.28,19.46-89.3-36.48"/><path class="cls-1" d="M151.89,146.9a72.11,72.11,0,0,0-18.17,73.55"/><path class="cls-1" d="M133.66,220.51a72.79,72.79,0,0,0-39.88,64.68"/><path class="cls-1" d="M309.2,202.1a47.93,47.93,0,0,1,0-23"/><path class="cls-1" d="M292.07,89.62a74.46,74.46,0,0,1,16.56,1.84"/><path class="cls-1" d="M263.47,353.35c21.82,8.92,19.74,68.34-37,88.09"/><path class="cls-1" d="M263.47,353.36c-21.82-8.92-62.91,34.57-37,88.08"/><path class="cls-1" d="M292.07,480.76a74.11,74.11,0,0,1-65.64-39.32"/><path class="cls-1" d="M226.43,441.44a74.62,74.62,0,0,1-74.6-17.95"/><path class="cls-1" d="M223,313.39c9,21.55-35,62.09-89.3,36.49"/><path class="cls-1" d="M223,313.39c-9-21.54-69.28-19.45-89.3,36.49"/><path class="cls-1" d="M151.89,423.49a72.13,72.13,0,0,1-18.17-73.55"/><path class="cls-1" d="M133.66,349.94a72.81,72.81,0,0,1-39.88-64.69"/><path class="cls-1" d="M309.2,368.29a47.89,47.89,0,0,0,0,23"/><path class="cls-1" d="M292.07,480.76a74.45,74.45,0,0,0,16.56-1.83"/><path class="cls-1" d="M262.26,214.19C285,204.93,282.8,143,223.71,122.46"/><path class="cls-1" d="M262.26,214.19c-22.75,9.27-65.52-36-38.55-91.73"/><path class="cls-1" d="M292.07,81.46a77.16,77.16,0,0,0-68.36,40.94"/><path class="cls-1" d="M223.71,122.46A77.64,77.64,0,0,0,146,141.17"/><path class="cls-1" d="M220.07,255.77c9.43-22.41-36.52-64.63-93-38"/><path class="cls-1" d="M220.07,255.77c-9.44,22.41-72.17,20.27-93-38"/><path class="cls-1" d="M146,141.17a75.31,75.31,0,0,0-19,76.61"/><path class="cls-1" d="M127.06,217.78a75.87,75.87,0,0,0-41.55,67.41"/><path class="cls-1" d="M309.22,195.51a50.68,50.68,0,0,1,0-17.2"/><path class="cls-1" d="M292.07,81.46a76.91,76.91,0,0,1,17.1,1.87"/><path class="cls-1" d="M262.26,356.19c22.74,9.27,20.54,71.18-38.55,91.73"/><path class="cls-1" d="M262.26,356.19c-22.75-9.26-65.52,36-38.55,91.73"/><path class="cls-1" d="M292.07,488.93A77.14,77.14,0,0,1,223.71,448"/><path class="cls-1" d="M223.71,447.92A77.64,77.64,0,0,1,146,429.22"/><path class="cls-1" d="M220.07,314.61c9.43,22.41-36.52,64.63-93,38"/><path class="cls-1" d="M220.07,314.61c-9.44-22.41-72.17-20.27-93,38"/><path class="cls-1" d="M146,429.22a75.32,75.32,0,0,1-19-76.62"/><path class="cls-1" d="M127.06,352.6a75.85,75.85,0,0,1-41.55-67.41"/><path class="cls-1" d="M309.22,374.87a50.68,50.68,0,0,0,0,17.2"/><path class="cls-1" d="M292.07,488.93a77.5,77.5,0,0,0,17.1-1.87"/><path class="cls-1" d="M255.78,198.85c27.66-11.3,25-86.58-46.88-111.66"/><path class="cls-1" d="M255.78,198.85C228.11,210.14,176,155.07,208.9,87.19"/><path class="cls-1" d="M292.07,37.33A93.8,93.8,0,0,0,208.9,87.19"/><path class="cls-1" d="M208.9,87.19A94.47,94.47,0,0,0,114.39,110"/><path class="cls-1" d="M204.5,249.4c11.46-27.27-44.39-78.64-113.15-46.21"/><path class="cls-1" d="M204.5,249.4C193,276.68,116.7,274.07,91.35,203.19"/><path class="cls-1" d="M114.39,110A91.51,91.51,0,0,0,91.3,203.19"/><path class="cls-1" d="M91.35,203.19c-30,15.4-50.52,46.33-50.52,82"/><path class="cls-1" d="M292.07,37.33a93.53,93.53,0,0,1,17.11,1.52"/><path class="cls-1" d="M255.78,371.6c27.66,11.29,25,86.57-46.88,111.65"/><path class="cls-1" d="M255.78,371.6C228.11,360.3,176,415.38,208.9,483.25"/><path class="cls-1" d="M292.07,533.05a93.75,93.75,0,0,1-83.17-49.86"/><path class="cls-1" d="M208.9,483.19a94.45,94.45,0,0,1-94.51-22.76"/><path class="cls-1" d="M204.5,321C216,348.26,160.11,399.63,91.35,367.2"/><path class="cls-1" d="M204.5,321C193,293.7,116.7,296.31,91.35,367.2"/><path class="cls-1" d="M114.39,460.43A91.5,91.5,0,0,1,91.3,367.2"/><path class="cls-1" d="M91.35,367.2c-30-15.41-50.52-46.33-50.52-82"/><path class="cls-1" d="M292.07,533.05a94.41,94.41,0,0,0,17.11-1.51"/><path class="cls-1" d="M257.17,202.15c26.62-10.89,24-83.28-45.09-107.31"/><path class="cls-1" d="M257.17,202.15C230.54,213,180.48,160,212.08,94.84"/><path class="cls-1" d="M292.07,46.89a90.09,90.09,0,0,0-79.93,48"/><path class="cls-1" d="M212.14,94.78a90.87,90.87,0,0,0-90.87,21.89"/><path class="cls-1" d="M207.86,250.79c11-26.23-42.72-75.63-108.81-44.47"/><path class="cls-1" d="M207.86,250.79c-11,26.24-84.39,23.69-108.81-44.47"/><path class="cls-1" d="M121.22,116.67a87.87,87.87,0,0,0-22.17,89.65"/><path class="cls-1" d="M99.05,206.32a88.56,88.56,0,0,0-48.56,78.87"/><path class="cls-1" d="M292.07,46.89a90.41,90.41,0,0,1,17.06,1.57"/><path class="cls-1" d="M257.17,368.24c26.62,10.88,24,83.28-45.09,107.31"/><path class="cls-1" d="M257.17,368.24c-26.63-10.89-76.69,42.1-45.09,107.31"/><path class="cls-1" d="M292.07,523.5a90.14,90.14,0,0,1-79.93-47.95"/><path class="cls-1" d="M212.14,475.61a90.89,90.89,0,0,1-90.87-21.89"/><path class="cls-1" d="M207.86,319.59c11,26.24-42.72,75.64-108.81,44.48"/><path class="cls-1" d="M207.86,319.59c-11-26.23-84.39-23.68-108.81,44.48"/><path class="cls-1" d="M121.22,453.72a87.89,87.89,0,0,1-22.17-89.65"/><path class="cls-1" d="M99.05,364.07a88.58,88.58,0,0,1-48.56-78.88"/><path class="cls-1" d="M292.07,523.5a89.6,89.6,0,0,0,17.06-1.58"/><path class="cls-1" d="M258.55,205.33c25.59-10.42,23.1-80-43.34-103.2"/><path class="cls-1" d="M258.55,205.33c-25.58,10.43-73.73-40.48-43.34-103.2"/><path class="cls-1" d="M292.07,56a86.62,86.62,0,0,0-76.86,46.09"/><path class="cls-1" d="M215.21,102.13a87.39,87.39,0,0,0-87.4,21"/><path class="cls-1" d="M211.1,252.12c10.59-25.24-41-72.73-104.64-42.73"/><path class="cls-1" d="M211.1,252.12c-10.59,25.25-81.14,22.76-104.64-42.73"/><path class="cls-1" d="M127.81,123.16a84.53,84.53,0,0,0-21.29,86.23"/><path class="cls-1" d="M106.46,209.39a85.23,85.23,0,0,0-46.71,75.8"/><path class="cls-1" d="M292.07,56a86.21,86.21,0,0,1,17,1.63"/><path class="cls-1" d="M258.55,365.05c25.59,10.43,23.1,80-43.34,103.2"/><path class="cls-1" d="M258.55,365.05c-25.58-10.42-73.73,40.48-43.34,103.2"/><path class="cls-1" d="M292.07,514.35a86.65,86.65,0,0,1-76.86-46.1"/><path class="cls-1" d="M215.21,468.25a87.35,87.35,0,0,1-87.4-21"/><path class="cls-1" d="M211.1,318.26c10.59,25.25-41,72.74-104.64,42.74"/><path class="cls-1" d="M211.1,318.26C200.51,293,130,295.5,106.46,361"/><path class="cls-1" d="M127.81,447.23A84.54,84.54,0,0,1,106.52,361"/><path class="cls-1" d="M106.46,361a85.25,85.25,0,0,1-46.71-75.81"/><path class="cls-1" d="M292.07,514.35a87,87,0,0,0,17-1.63"/><path class="cls-1" d="M259.83,208.4c24.59-10.08,22.22-77-41.67-99.26"/><path class="cls-1" d="M259.83,208.4c-24.6,10.08-70.9-38.91-41.67-99.26"/><path class="cls-1" d="M292.07,64.84a83.32,83.32,0,0,0-73.91,44.3"/><path class="cls-1" d="M218.16,109.14a84.17,84.17,0,0,0-84,20.21"/><path class="cls-1" d="M214.22,253.4c10.19-24.27-39.47-69.9-100.58-41.12"/><path class="cls-1" d="M214.22,253.4c-10.18,24.26-78,21.89-100.58-41.12"/><path class="cls-1" d="M134.12,129.41a81.24,81.24,0,0,0-20.48,82.87"/><path class="cls-1" d="M113.64,212.28a82,82,0,0,0-44.92,72.91"/><path class="cls-1" d="M292.07,64.84a83.31,83.31,0,0,1,17,1.7"/><path class="cls-1" d="M259.83,362c24.59,10.08,22.22,77-41.67,99.26"/><path class="cls-1" d="M259.83,362c-24.6-10.07-70.9,38.92-41.67,99.26"/><path class="cls-1" d="M292.07,505.55a83.36,83.36,0,0,1-73.91-44.31"/><path class="cls-1" d="M218.16,461.24a84.15,84.15,0,0,1-84-20.21"/><path class="cls-1" d="M214.22,317c10.19,24.26-39.47,69.9-100.58,41.11"/><path class="cls-1" d="M214.22,317c-10.18-24.27-78-21.89-100.58,41.11"/><path class="cls-1" d="M134.12,441a81.26,81.26,0,0,1-20.48-82.88"/><path class="cls-1" d="M113.64,358.1a81.93,81.93,0,0,1-44.92-72.91"/><path class="cls-1" d="M292.07,505.55a83.31,83.31,0,0,0,17-1.7"/><path class="cls-1" d="M261,211.35c23.67-9.67,21.36-74-40.05-95.43"/><path class="cls-1" d="M261,211.35C237.37,221,192.87,173.89,221,115.92"/><path class="cls-1" d="M292.07,73.35A80.22,80.22,0,0,0,221,116"/><path class="cls-1" d="M221,115.92a80.8,80.8,0,0,0-80.79,19.46"/><path class="cls-1" d="M217.23,254.62c9.78-23.34-38-67.24-96.71-39.56"/><path class="cls-1" d="M217.23,254.62c-9.78,23.33-75,21.08-96.71-39.56"/><path class="cls-1" d="M140.2,135.38a78.23,78.23,0,0,0-19.74,79.68"/><path class="cls-1" d="M120.46,215.06a78.87,78.87,0,0,0-43.17,70.13"/><path class="cls-1" d="M309.22,185.77c-.08-1.73-.08-3.46,0-5.19"/><path class="cls-1" d="M292.07,73.35a79.51,79.51,0,0,1,17.05,1.79"/><path class="cls-1" d="M261,359c23.67,9.67,21.36,74-40.05,95.44"/><path class="cls-1" d="M261,359c-23.67-9.67-68.17,37.47-40.05,95.44"/><path class="cls-1" d="M292.07,497A80.17,80.17,0,0,1,221,454.41"/><path class="cls-1" d="M221,454.47A80.82,80.82,0,0,1,140.2,435"/><path class="cls-1" d="M217.23,315.77c9.78,23.34-38,67.24-96.71,39.55"/><path class="cls-1" d="M217.23,315.77c-9.78-23.34-75-21.08-96.71,39.55"/><path class="cls-1" d="M140.2,435a78.24,78.24,0,0,1-19.74-79.69"/><path class="cls-1" d="M120.46,355.32a78.86,78.86,0,0,1-43.17-70.13"/><path class="cls-1" d="M309.22,384.61c-.08,1.73-.08,3.46,0,5.19"/><path class="cls-1" d="M292.07,497a80.14,80.14,0,0,0,17.05-1.78"/><path class="cls-1" d="M191,44.45c-18.28,7.47-22.45-2.54-40.68,4.93S131.06,71.61,118,74.28,96.1,77.17,88.69,84.47s-7.64,16-10.36,28.9-17.71,13.9-25.23,31.91,2.54,22.18-5,40.19"/><path class="cls-1" d="M48.06,185.47c-7.58,18-17.71,13.9-25.23,31.91s2.31,29.19-5,40.19S4.42,274.88,4.42,285.19s6.08,16.62,13.37,27.63S15.25,335,22.83,353s17.71,13.9,25.23,31.91"/><path class="cls-1" d="M48.06,384.92c7.58,18-2.54,22.18,5,40.19s22.57,19,25.23,31.91,3,21.6,10.36,28.9,16.21,7.52,29.29,10.19S132,513.54,150.27,521s22.46-2.55,40.69,4.92"/><path class="cls-1" d="M191,525.93c8,3.25,12.66,8.45,18.09,14.77a38.37,38.37,0,0,0,23.76,12.73c8,1.12,15.9-1.35,23.82-.34,9.06,1.15,15.89,9.31,23.92,13.14,9.8,4.68,19.55,2.59,28.41-3"/><path class="cls-1" d="M191,44.45c8-3.25,12.66-8.45,18.09-14.77A38.31,38.31,0,0,1,232.86,17c8-1.13,15.9,1.34,23.82.33,9.06-1.15,15.87-9.29,23.88-13.13,9.79-4.7,19.55-2.59,28.39,3"/><path class="cls-1" d="M193,49.2c-17.88,7.3-22-2.49-39.93,4.87S134.18,75.9,121.33,78.51s-21.47,2.83-28.7,10-7.47,15.7-10.13,28.32-17.36,13.61-24.77,31.28,2.49,21.71-4.92,39.37"/><path class="cls-1" d="M52.87,187.44C45.46,205.1,35.5,201.05,28.1,218.71s2.25,28.61-4.92,39.38S10,275.06,10,285.19s6,16.33,13.14,27.11S20.69,334,28.1,351.67,45.46,365.28,52.87,383"/><path class="cls-1" d="M52.87,383c7.4,17.66-2.49,21.71,4.92,39.38S79.89,441,82.56,453.6s2.89,21.14,10.12,28.32,15.92,7.41,28.71,10,13.77,17.08,31.72,24.44,22-2.49,39.93,4.86"/><path class="cls-1" d="M193,521.18C203,525,208,534,216,541c12,9,27,6,41,7,9,1,15,9,23,13a29.31,29.31,0,0,0,28.82-3.28"/><path class="cls-1" d="M193,49.2c7.82-3.19,12.42-8.32,17.75-14.53a37.72,37.72,0,0,1,23.11-12.44c7.8-1.14,15.5,1.22,23.24.33,8.89-1,15.56-8.94,23.34-12.77C290.21,5,300,7,308.82,12.66"/><path class="cls-1" d="M195,53.84c-17.54,7.18-21.59-2.44-39.12,4.74S137.31,80,124.75,82.5s-21,2.78-28.13,9.79-7.35,15.35-10,27.74-17,13.32-24.25,30.63S64.9,172,57.61,189.29"/><path class="cls-1" d="M57.55,189.35c-7.29,17.31-17,13.32-24.25,30.63s2.26,28-4.8,38.63-12.85,16.62-12.85,26.58,5.85,16,12.85,26.58-2.43,21.32,4.8,38.63,17,13.32,24.25,30.64"/><path class="cls-1" d="M57.55,381c7.3,17.31-2.48,21.31,4.81,38.62S84,437.91,86.61,450.3,89.44,471,96.56,478s15.57,7.24,28.13,9.79,13.54,16.79,31.08,23.91,21.59-2.43,39.12,4.75"/><path class="cls-1" d="M195,516.55c7.78,3.18,12.26,8.33,17.59,14.46a36.74,36.74,0,0,0,22.89,12c7.66,1,15.33-1.4,22.92-.29,8.67,1.27,15.22,9.14,23,12.75,9.76,4.52,19.17,2,27.8-3.64"/><path class="cls-1" d="M195,53.84c7.78-3.19,12.26-8.34,17.59-14.47a36.83,36.83,0,0,1,22.89-12c7.66-1,15.33,1.4,22.92.29,8.67-1.26,15.21-9.15,23-12.78,9.76-4.55,19.21-2,27.85,3.62"/><path class="cls-1" d="M196.8,58.35c-17.19,7-21.18-2.37-38.37,4.64S140.26,84,128,86.44s-20.6,2.72-27.61,9.61-7.17,15.06-9.72,27.22S74,136.36,66.87,153.33s2.43,20.85-4.69,37.87"/><path class="cls-1" d="M62.13,191.26c-7.12,17-16.67,13.09-23.79,30.06s2.2,27.5-4.75,37.87S21,275.52,21,285.25s5.73,15.69,12.61,26.06-2.43,20.85,4.75,37.87S55,362.27,62.13,379.24"/><path class="cls-1" d="M62.13,379.18c7.11,17-2.43,20.85,4.68,37.88S88.05,435,90.6,447.11s2.78,20.33,9.72,27.22,15.28,7.12,27.61,9.62,13.25,16.44,30.44,23.45S179.55,505,196.74,512"/><path class="cls-1" d="M196.8,512c9.2,5,15.2,12,22.2,19a27.16,27.16,0,0,0,17,6c15,1,30,1,43,11,9,7,22,5,30.09-1.62"/><path class="cls-1" d="M196.8,58.35c7.55-3.07,12-8.06,17.13-14A36,36,0,0,1,236.4,32.43c7.54-1,15.09,1.37,22.56.29,8.62-1.26,15.09-9.1,22.85-12.64,9.64-4.4,18.88-1.68,27.33,3.86"/><path class="cls-1" d="M198.71,62.81C181.87,69.7,178,60.5,161.09,67.39s-17.77,20.56-29.86,23S111,93,104.2,99.82s-7.06,14.76-9.55,26.69S78.33,139.31,71.33,156s2.37,20.44-4.63,37.12"/><path class="cls-1" d="M66.64,193.05c-7,16.63-16.32,12.8-23.32,29.48s2.14,26.93-4.63,37.12-12.39,16-12.39,25.54,5.61,15.35,12.39,25.54-2.38,20.44,4.63,37.12,16.32,12.8,23.32,29.48"/><path class="cls-1" d="M66.64,377.33c7,16.62-2.37,20.44,4.63,37.12S92.11,432,94.59,443.93s2.72,19.92,9.55,26.7,15,6.95,27,9.44,13,16.1,29.87,23,20.71-2.32,37.61,4.57"/><path class="cls-1" d="M198.71,507.57A23.42,23.42,0,0,1,208,513c12,16,29,23,48,20,9-2,16,6,23,11,10,6,21,3,30.11-2.91"/><path class="cls-1" d="M198.71,62.81c7.52-3.07,11.81-8.06,17-14a35.44,35.44,0,0,1,22.06-11.48c7.45-1,15,1.51,22.35.24,8.32-1.43,14.57-9.12,22.19-12.46,9.54-4.2,18.56-1.32,26.82,4.15"/><path class="cls-1" d="M200.51,67.15c-16.56,6.78-20.32-2.25-36.87,4.46S146.22,91.77,134.35,94.2s-19.79,2.61-26.5,9.26-6.95,14.48-9.38,26.18-16,12.57-22.86,28.9,2.32,20-4.51,36.37"/><path class="cls-1" d="M71.1,194.91c-6.83,16.33-16,12.57-22.86,28.9s2.08,26.4-4.52,36.36-12.15,15.7-12.15,25,5.5,15.06,12.15,25-2.31,20.1,4.52,36.37,16,12.57,22.86,28.9"/><path class="cls-1" d="M71.1,375.54c6.83,16.33-2.32,20,4.51,36.36S96,429.1,98.47,440.8s2.66,19.58,9.38,26.18,14.7,6.83,26.5,9.26,12.74,15.81,29.29,22.59,20.31-2.26,36.87,4.46"/><path class="cls-1" d="M200.51,503.23c7.41,3,11.6,8,16.69,13.78a34.75,34.75,0,0,0,22.24,11.29c7.05.79,14.2-1.5,21.18-.34,8.3,1.38,14.49,9.07,22.12,12.33,9.46,4.05,18.25,1,26.38-4.41"/><path class="cls-1" d="M200.51,67.15c7.41-3,11.6-8,16.69-13.77a34.81,34.81,0,0,1,22.24-11.3c7.05-.79,14.2,1.5,21.18.34,8.3-1.37,14.49-9.07,22.12-12.33,9.46-4,18.25-1,26.38,4.42"/></svg>